<svg xmlns="http://www.w3.org/2000/svg" width="17.256" height="9.756" viewBox="0 0 17.256 9.756" fill="none">
  <path d="M 16.924 1.925 L 9.424 9.425 C 9.319 9.53 9.195 9.613 9.058 9.67 C 8.922 9.726 8.775 9.756 8.627 9.756 C 8.479 9.756 8.332 9.726 8.196 9.67 C 8.059 9.613 7.935 9.53 7.83 9.425 L 0.33 1.925 C 0.119 1.713 0 1.427 0 1.128 C 0 0.829 0.119 0.542 0.33 0.331 C 0.541 0.12 0.828 0.001 1.127 0.001 C 1.426 0.001 1.712 0.12 1.924 0.331 L 8.628 7.035 L 15.332 0.33 C 15.543 0.119 15.83 0 16.129 0 C 16.428 0 16.714 0.119 16.926 0.33 C 17.137 0.541 17.256 0.828 17.256 1.127 C 17.256 1.426 17.137 1.712 16.926 1.924 L 16.924 1.925 Z" fill="currentColor" fill-rule="nonzero"></path>
</svg>