<svg id="Layer_1" enable-background="new 0 0 100 100" height="100" viewBox="0 0 100 100" width="100" xmlns="http://www.w3.org/2000/svg"><path d="m87.019 45.176-3.686-1.842c0-18.412-14.925-33.334-33.333-33.334-18.41 0-33.334 14.922-33.334 33.334l-3.684 1.842c-1.64.82-2.982 2.992-2.982 4.824v6.667c0 1.832 1.342 4.004 2.982 4.824l3.684 1.842h5v-19.999c0-15.625 12.711-28.334 28.334-28.334 15.622 0 28.333 12.709 28.333 28.334v26.666c0 8.284-6.715 15-15 15h-10v-5h-6.667v10h16.667c11.045 0 20-8.955 20-20v-6.667l3.686-1.842c1.64-.82 2.981-2.992 2.981-4.824v-6.667c0-1.832-1.341-4.004-2.981-4.824z"/><path d="m63.333 35h-10.833v-7.084c1.966-.67 3.333-2.09 3.333-3.75 0-2.301-2.61-4.166-5.833-4.166s-5.834 1.865-5.834 4.166c0 1.66 1.367 3.084 3.334 3.75v7.084h-10.834c-5.52 0-10 4.479-10 10v13.333c0 9.199 7.469 16.667 16.668 16.667h13.333c9.199 0 16.666-7.468 16.666-16.667v-13.333c0-5.521-4.479-10-10-10zm-24.999 16.667v-3.333c0-1.844 1.494-3.334 3.332-3.334 1.84 0 3.334 1.49 3.334 3.334v3.333c0 1.846-1.494 3.333-3.334 3.333-1.838 0-3.332-1.487-3.332-3.333zm19.999 13.333-6.666 1.667h-3.333l-6.668-1.667v-3.333h16.667zm3.334-13.333c0 1.846-1.494 3.333-3.334 3.333-1.839 0-3.333-1.487-3.333-3.333v-3.333c0-1.844 1.494-3.334 3.333-3.334 1.84 0 3.334 1.49 3.334 3.334z"/></svg>